<?xml version="1.0" encoding="UTF-8" standalone="no"?>
<!-- Created with Inkscape (http://www.inkscape.org/) -->

<svg
   version="1.1"
   id="svg1"
   width="500"
   height="499"
   viewBox="0 0 500 499"
   sodipodi:docname="logomarca cangUp.svg"
   inkscape:version="1.4 (86a8ad7, 2024-10-11)"
   xmlns:inkscape="http://www.inkscape.org/namespaces/inkscape"
   xmlns:sodipodi="http://sodipodi.sourceforge.net/DTD/sodipodi-0.dtd"
   xmlns:xlink="http://www.w3.org/1999/xlink"
   xmlns="http://www.w3.org/2000/svg"
   xmlns:svg="http://www.w3.org/2000/svg">
  <defs
     id="defs1">
    <linearGradient
       id="linearGradient322"
       inkscape:collect="always">
      <stop
         style="stop-color:#522e91;stop-opacity:1;"
         offset="0"
         id="stop322" />
      <stop
         style="stop-color:#522e91;stop-opacity:1;"
         offset="1"
         id="stop323" />
    </linearGradient>
    <linearGradient
       id="linearGradient320"
       inkscape:collect="always">
      <stop
         style="stop-color:#522e91;stop-opacity:1;"
         offset="0"
         id="stop320" />
      <stop
         style="stop-color:#522e91;stop-opacity:1;"
         offset="1"
         id="stop321" />
    </linearGradient>
    <linearGradient
       id="linearGradient318"
       inkscape:collect="always">
      <stop
         style="stop-color:#522e91;stop-opacity:1;"
         offset="0"
         id="stop318" />
      <stop
         style="stop-color:#522e91;stop-opacity:1;"
         offset="1"
         id="stop319" />
    </linearGradient>
    <linearGradient
       id="linearGradient316"
       inkscape:collect="always">
      <stop
         style="stop-color:#523421;stop-opacity:1;"
         offset="0"
         id="stop316" />
      <stop
         style="stop-color:#523421;stop-opacity:1;"
         offset="1"
         id="stop317" />
    </linearGradient>
    <linearGradient
       id="linearGradient314"
       inkscape:collect="always">
      <stop
         style="stop-color:#523421;stop-opacity:1;"
         offset="0"
         id="stop314" />
      <stop
         style="stop-color:#523421;stop-opacity:1;"
         offset="1"
         id="stop315" />
    </linearGradient>
    <linearGradient
       id="linearGradient312"
       inkscape:collect="always">
      <stop
         style="stop-color:#523421;stop-opacity:1;"
         offset="0"
         id="stop312" />
      <stop
         style="stop-color:#523421;stop-opacity:1;"
         offset="1"
         id="stop313" />
    </linearGradient>
    <linearGradient
       id="linearGradient310"
       inkscape:collect="always">
      <stop
         style="stop-color:#523421;stop-opacity:1;"
         offset="0"
         id="stop310" />
      <stop
         style="stop-color:#523421;stop-opacity:1;"
         offset="1"
         id="stop311" />
    </linearGradient>
    <linearGradient
       id="linearGradient43"
       inkscape:collect="always">
      <stop
         style="stop-color:#ffd992;stop-opacity:1;"
         offset="1"
         id="stop43" />
      <stop
         style="stop-color:#ffd992;stop-opacity:0;"
         offset="1"
         id="stop44" />
    </linearGradient>
    <linearGradient
       id="linearGradient39"
       inkscape:collect="always">
      <stop
         style="stop-color:#744a2f;stop-opacity:1;"
         offset="0"
         id="stop39" />
      <stop
         style="stop-color:#b47941;stop-opacity:1;"
         offset="1"
         id="stop40" />
    </linearGradient>
    <linearGradient
       id="linearGradient33"
       inkscape:collect="always">
      <stop
         style="stop-color:#a46943;stop-opacity:1;"
         offset="1"
         id="stop33" />
      <stop
         style="stop-color:#a46943;stop-opacity:1;"
         offset="1"
         id="stop34" />
    </linearGradient>
    <linearGradient
       id="linearGradient21"
       inkscape:collect="always">
      <stop
         style="stop-color:#b47941;stop-opacity:1;"
         offset="0"
         id="stop21" />
      <stop
         style="stop-color:#b47941;stop-opacity:0;"
         offset="1"
         id="stop22" />
    </linearGradient>
    <linearGradient
       id="linearGradient19"
       inkscape:collect="always">
      <stop
         style="stop-color:#b47941;stop-opacity:1;"
         offset="0"
         id="stop19" />
      <stop
         style="stop-color:#b47941;stop-opacity:0;"
         offset="1"
         id="stop20" />
    </linearGradient>
    <linearGradient
       id="linearGradient18"
       inkscape:collect="always">
      <stop
         style="stop-color:#b47941;stop-opacity:1;"
         offset="0.54000044"
         id="stop17" />
      <stop
         style="stop-color:#b47941;stop-opacity:0;"
         offset="1"
         id="stop18" />
    </linearGradient>
    <linearGradient
       id="linearGradient15"
       inkscape:collect="always">
      <stop
         style="stop-color:#ffbe31;stop-opacity:1;"
         offset="0.89999998"
         id="stop15" />
      <stop
         style="stop-color:#ffbe31;stop-opacity:0;"
         offset="1"
         id="stop16" />
    </linearGradient>
    <linearGradient
       inkscape:collect="always"
       xlink:href="#linearGradient15"
       id="linearGradient16"
       x1="81.400085"
       y1="234.66023"
       x2="100.84992"
       y2="238.08977"
       gradientUnits="userSpaceOnUse"
       gradientTransform="matrix(2.0427594,0,0,1,-84.724201,0)" />
    <linearGradient
       inkscape:collect="always"
       xlink:href="#linearGradient18"
       id="linearGradient17"
       gradientUnits="userSpaceOnUse"
       gradientTransform="matrix(1.6892035,0,0,1,-43.181921,-472.84361)"
       x1="100.99988"
       y1="236.375"
       x2="81.250092"
       y2="236.375" />
    <linearGradient
       inkscape:collect="always"
       xlink:href="#linearGradient19"
       id="linearGradient20"
       x1="59.928932"
       y1="248.14537"
       x2="74.428932"
       y2="248.14537"
       gradientUnits="userSpaceOnUse"
       gradientTransform="translate(-3.5355337,-11.844038)" />
    <linearGradient
       inkscape:collect="always"
       xlink:href="#linearGradient21"
       id="linearGradient22"
       x1="91.261703"
       y1="270.80222"
       x2="69.55806"
       y2="270.80222"
       gradientUnits="userSpaceOnUse"
       gradientTransform="translate(-1.7677669,-9.6343295)" />
    <linearGradient
       inkscape:collect="always"
       xlink:href="#linearGradient33"
       id="linearGradient34"
       x1="54.094349"
       y1="278.15813"
       x2="109.08923"
       y2="278.15813"
       gradientUnits="userSpaceOnUse"
       gradientTransform="translate(0.35355337,0.17677669)" />
    <linearGradient
       inkscape:collect="always"
       xlink:href="#linearGradient39"
       id="linearGradient40"
       x1="89.532715"
       y1="302.47711"
       x2="36.668301"
       y2="287.31848"
       gradientUnits="userSpaceOnUse"
       gradientTransform="translate(18.561552,-16.440232)" />
    <linearGradient
       inkscape:collect="always"
       xlink:href="#linearGradient43"
       id="linearGradient44"
       x1="181.45312"
       y1="231.80764"
       x2="195.40939"
       y2="231.80764"
       gradientUnits="userSpaceOnUse" />
    <filter
       style="color-interpolation-filters:sRGB;"
       inkscape:label="Drop Shadow"
       id="filter145"
       x="-0.27200967"
       y="-0.42859927"
       width="1.6290224"
       height="1.6923527">
      <feFlood
         result="flood"
         in="SourceGraphic"
         flood-opacity="0.172549"
         flood-color="rgb(82,52,33)"
         id="feFlood144" />
      <feGaussianBlur
         result="blur"
         in="SourceGraphic"
         stdDeviation="4.000000"
         id="feGaussianBlur144" />
      <feOffset
         result="offset"
         in="blur"
         dx="3.000000"
         dy="-6.000000"
         id="feOffset144" />
      <feComposite
         result="comp1"
         operator="out"
         in="flood"
         in2="offset"
         id="feComposite144" />
      <feComposite
         result="fbSourceGraphic"
         operator="atop"
         in="comp1"
         in2="SourceGraphic"
         id="feComposite145" />
      <feColorMatrix
         result="fbSourceGraphicAlpha"
         in="fbSourceGraphic"
         values="0 0 0 -1 0 0 0 0 -1 0 0 0 0 -1 0 0 0 0 1 0"
         id="feColorMatrix150" />
      <feFlood
         id="feFlood150"
         result="flood"
         in="fbSourceGraphic"
         flood-opacity="0.337255"
         flood-color="rgb(82,52,33)" />
      <feGaussianBlur
         id="feGaussianBlur150"
         result="blur"
         in="fbSourceGraphic"
         stdDeviation="4.000000" />
      <feOffset
         id="feOffset150"
         result="offset"
         in="blur"
         dx="3.000000"
         dy="-6.000000" />
      <feComposite
         id="feComposite150"
         result="comp1"
         operator="out"
         in="flood"
         in2="offset" />
      <feComposite
         id="feComposite151"
         result="comp2"
         operator="atop"
         in="comp1"
         in2="fbSourceGraphic" />
    </filter>
    <filter
       style="color-interpolation-filters:sRGB;"
       inkscape:label="Drop Shadow"
       id="filter186"
       x="-0.049654074"
       y="-0.03257454"
       width="1.0797285"
       height="1.1228332">
      <feFlood
         result="flood"
         in="SourceGraphic"
         flood-opacity="0.337255"
         flood-color="rgb(82,52,33)"
         id="feFlood185" />
      <feGaussianBlur
         result="blur"
         in="SourceGraphic"
         stdDeviation="1.600000"
         id="feGaussianBlur185" />
      <feOffset
         result="offset"
         in="blur"
         dx="-2.500000"
         dy="6.800000"
         id="feOffset185" />
      <feComposite
         result="comp1"
         operator="out"
         in="flood"
         in2="offset"
         id="feComposite185" />
      <feComposite
         result="comp2"
         operator="atop"
         in="comp1"
         in2="SourceGraphic"
         id="feComposite186" />
    </filter>
    <filter
       style="color-interpolation-filters:sRGB;"
       inkscape:label="Drop Shadow"
       id="filter194"
       x="-0.11477354"
       y="-0.094563076"
       width="1.1842894"
       height="1.5585132">
      <feFlood
         result="flood"
         in="SourceGraphic"
         flood-opacity="0.337255"
         flood-color="rgb(82,52,33)"
         id="feFlood193" />
      <feGaussianBlur
         result="blur"
         in="SourceGraphic"
         stdDeviation="1.600000"
         id="feGaussianBlur193" />
      <feOffset
         result="offset"
         in="blur"
         dx="-2.500000"
         dy="15.000000"
         id="feOffset193" />
      <feComposite
         result="comp1"
         operator="out"
         in="flood"
         in2="offset"
         id="feComposite193" />
      <feComposite
         result="comp2"
         operator="atop"
         in="comp1"
         in2="SourceGraphic"
         id="feComposite194" />
    </filter>
    <filter
       style="color-interpolation-filters:sRGB;"
       inkscape:label="Drop Shadow"
       id="filter217"
       x="-0.3081053"
       y="-0.14706753"
       width="1.5660539"
       height="1.4657139">
      <feFlood
         result="flood"
         in="SourceGraphic"
         flood-opacity="0.337255"
         flood-color="rgb(82,52,33)"
         id="feFlood216" />
      <feGaussianBlur
         result="blur"
         in="SourceGraphic"
         stdDeviation="1.500000"
         id="feGaussianBlur216" />
      <feOffset
         result="offset"
         in="blur"
         dx="-0.700000"
         dy="4.200000"
         id="feOffset216" />
      <feComposite
         result="comp1"
         operator="out"
         in="flood"
         in2="offset"
         id="feComposite216" />
      <feComposite
         result="comp2"
         operator="atop"
         in="comp1"
         in2="SourceGraphic"
         id="feComposite217" />
    </filter>
    <linearGradient
       inkscape:collect="always"
       xlink:href="#linearGradient310"
       id="linearGradient311"
       x1="146.96089"
       y1="266.59811"
       x2="146.96089"
       y2="285.17191"
       gradientUnits="userSpaceOnUse" />
    <linearGradient
       inkscape:collect="always"
       xlink:href="#linearGradient312"
       id="linearGradient313"
       x1="186.23132"
       y1="250.56094"
       x2="186.23132"
       y2="288.186"
       gradientUnits="userSpaceOnUse" />
    <linearGradient
       inkscape:collect="always"
       xlink:href="#linearGradient314"
       id="linearGradient315"
       x1="224.75281"
       y1="252.12463"
       x2="224.75281"
       y2="286.96887"
       gradientUnits="userSpaceOnUse" />
    <linearGradient
       inkscape:collect="always"
       xlink:href="#linearGradient316"
       id="linearGradient317"
       x1="264.68237"
       y1="258.09555"
       x2="264.68237"
       y2="295.24619"
       gradientUnits="userSpaceOnUse" />
    <linearGradient
       inkscape:collect="always"
       xlink:href="#linearGradient318"
       id="linearGradient319"
       x1="309.3847"
       y1="260.957"
       x2="309.3847"
       y2="245.69772"
       gradientUnits="userSpaceOnUse" />
    <linearGradient
       inkscape:collect="always"
       xlink:href="#linearGradient320"
       id="linearGradient321"
       x1="351.57736"
       y1="262.94965"
       x2="351.57736"
       y2="252.49152"
       gradientUnits="userSpaceOnUse" />
    <linearGradient
       inkscape:collect="always"
       xlink:href="#linearGradient322"
       id="linearGradient323"
       x1="381.57666"
       y1="262.99811"
       x2="381.57666"
       y2="246.80507"
       gradientUnits="userSpaceOnUse" />
    <filter
       style="color-interpolation-filters:sRGB;"
       inkscape:label="Drop Shadow"
       id="filter354"
       x="-0.45979379"
       y="-0.41039388"
       width="1.8610684"
       height="1.7000837">
      <feFlood
         result="flood"
         in="SourceGraphic"
         flood-opacity="0.662745"
         flood-color="rgb(82,52,33)"
         id="feFlood353" />
      <feGaussianBlur
         result="blur"
         in="SourceGraphic"
         stdDeviation="2.000000"
         id="feGaussianBlur353" />
      <feOffset
         result="offset"
         in="blur"
         dx="-0.700000"
         dy="-2.000000"
         id="feOffset353" />
      <feComposite
         result="comp1"
         operator="out"
         in="flood"
         in2="offset"
         id="feComposite353" />
      <feComposite
         result="comp2"
         operator="atop"
         in="comp1"
         in2="SourceGraphic"
         id="feComposite354" />
    </filter>
  </defs>
  <sodipodi:namedview
     id="namedview1"
     pagecolor="#ffffff"
     bordercolor="#111111"
     borderopacity="1"
     inkscape:showpageshadow="0"
     inkscape:pageopacity="0"
     inkscape:pagecheckerboard="1"
     inkscape:deskcolor="#d1d1d1"
     inkscape:zoom="2.0000001"
     inkscape:cx="256.24999"
     inkscape:cy="243.24999"
     inkscape:window-width="1920"
     inkscape:window-height="1001"
     inkscape:window-x="-9"
     inkscape:window-y="-9"
     inkscape:window-maximized="1"
     inkscape:current-layer="g1" />
  <g
     inkscape:groupmode="layer"
     inkscape:label="Image"
     id="g1">
    <rect
       style="display:inline;fill:#ffbe31;fill-opacity:1;stroke-width:15.678;stroke-dasharray:none;paint-order:stroke fill markers"
       id="retangulo"
       width="319.74957"
       height="149.07887"
       x="98.413513"
       y="185.61639"
       rx="39.752998" />
    <ellipse
       style="display:inline;fill:#522e91;fill-opacity:1;stroke-width:0.907571"
       id="ponto"
       cx="380.3963"
       cy="283.27451"
       rx="7.1572309"
       ry="7.1703944" />
    <path
       style="display:inline;fill:url(#linearGradient323);fill-opacity:1;stroke-width:1.02373"
       d="m 374.03851,237.92583 c -0.54765,0.47952 -0.55837,1.21524 -0.55837,1.21524 l 0.22335,3.86669 2.23352,29.05543 h 10.55338 l 2.84775,-29.6078 0.33502,-3.36956 c 0,0 -0.14683,-0.72975 -0.44671,-0.99429 -0.34978,-0.30857 -1.22843,-0.33143 -1.22843,-0.33143 l -12.73107,-5e-5 c 0,0 -0.91897,-0.1052 -1.22844,0.16577 z"
       id="interroga____o"
       sodipodi:nodetypes="sccccccsccs" />
    <path
       style="display:inline;fill:url(#linearGradient321);fill-opacity:1"
       d="m 345.55597,288.32134 -0.0384,11.20142 c 0,0 -0.15345,1.11247 -1.34264,1.22755 -1.18919,0.11508 -10.08895,-0.0403 -10.08895,-0.0403 0,0 -1.60454,0.15618 -1.5728,-3.02858 0.0376,-3.76949 -0.0384,-0.11509 -0.0384,-0.11509 l 0.88231,-40.70971 c 0,0 -0.5491,-5.13169 2.02109,-5.13169 2.57019,0 2.85075,-0.0384 2.85075,-0.0384 h 5.44727 c 0,0 2.07149,-0.0767 1.95641,2.80035 v 0.76722 c 0,0 5.75415,-5.60071 10.8178,-4.44988 0,0 1.30428,0.15345 2.34002,0.57542 1.03575,0.42197 3.18397,0.99739 4.48824,2.10986 1.30428,1.11246 3.10724,2.26329 4.79513,5.83087 1.68788,3.56757 1.84133,3.87446 2.2633,6.82826 0.42197,2.9538 -0.73158,10.4183 -0.73158,10.4183 0,0 -2.0554,6.24206 -5.06093,8.91565 -3.1363,2.78992 -4.02791,2.80035 -4.02791,2.80035 0,0 -5.83087,3.29905 -12.58241,-0.34525 l -1.91805,-0.8823 -0.42197,-0.30689 z"
       id="p"
       sodipodi:nodetypes="ccscsccscccccsssscsccccc" />
    <path
       style="fill:url(#linearGradient319);fill-opacity:1"
       d="m 290.93819,242.41151 10.47256,0.0384 c 0,0 1.53444,-0.11509 1.84132,0.72886 0.30689,0.84394 0.0767,3.22232 0.0767,4.94857 0,1.72624 -0.0767,23.17004 -0.0767,23.17004 l 0.11512,2.45511 c 0,0 0.38361,2.49347 2.91543,3.03052 2.53183,0.53706 3.98955,0.15345 3.98955,0.15345 0,0 3.49086,0.23014 3.8361,-3.22233 0.34525,-3.45249 0.38361,-5.06365 0.38361,-5.06365 l 0.49869,-25.0881 c 0,0 0,-1.57281 2.9538,-1.22756 l 9.28337,0.0384 c 2.03149,0.009 2.34894,0.54113 2.4551,2.37839 0.15068,2.15968 0.041,20.17535 0.041,20.17535 0,0 -0.74365,14.34503 -1.9421,16.6215 -1.25778,2.38917 -1.5417,2.77696 -3.99681,4.96353 -2.4551,2.18658 -8.86571,3.85744 -9.59457,3.85744 -0.72886,0 -10.43965,-0.0449 -10.43965,-0.0449 0,0 -5.51355,-0.46691 -8.42899,-2.76857 -2.91543,-2.30166 -4.19178,-3.56099 -5.72622,-7.24365 -1.53444,-3.68266 -0.99739,-14.61554 -0.99739,-14.61554 l -0.0384,-21.9425 c 0,0 0.0767,-1.5728 2.37838,-1.34264 z"
       id="u"
       sodipodi:nodetypes="ccssccscsccccscssscsscccc" />
    <path
       style="display:inline;fill:url(#linearGradient317);fill-opacity:1"
       d="m 283.25769,252.26199 -0.30689,32.60686 c 0,0 -0.30689,4.21971 -1.99477,7.90237 -1.68789,3.68265 -3.8361,5.98432 -5.67743,6.90498 -1.84133,0.92066 -4.5266,3.06886 -8.66959,3.37577 -4.14299,0.30691 -6.21449,0.0767 -8.97648,-0.38361 -2.76199,-0.46033 -7.97908,-2.83871 -8.59286,-3.60593 -0.61377,-0.76722 -0.2618,-7.13055 2.30166,-8.66959 1.05836,-0.63542 1.15082,-0.0767 3.60593,0.84394 2.4551,0.92066 5.60071,1.91805 10.51092,0.53705 4.91021,-1.38099 4.14299,-6.36793 4.14299,-6.36793 0,0 -9.97386,4.14299 -16.26507,-0.30688 -6.2912,-4.44988 -8.59286,-13.96341 -6.44465,-23.3235 2.14822,-9.36008 10.35747,-10.89452 10.35747,-10.89452 0,0 7.90237,-2.14822 11.89192,0.92066 3.98954,3.06888 2.30166,2.14822 2.30166,2.14822 0,0 -0.56275,-2.53019 0.30689,-3.06888 1.31605,-0.81522 1.27876,-0.6691 7.13514,-0.61376 4.14084,0.0391 3.91283,0.46032 4.37316,1.99476 z"
       id="g"
       sodipodi:nodetypes="ccsssssssscsscscsscc" />
    <path
       style="fill:#ffbe31;fill-opacity:1"
       d="m 269.44772,263.11816 0.0384,10.89453 c 0,0 -0.1918,1.87968 -2.03313,3.06888 -1.84133,1.18919 -5.37054,0.46033 -5.37054,0.46033 0,0 -2.57019,-0.84394 -3.37577,-3.03052 -0.80558,-2.18658 -0.99739,-7.97909 -0.1918,-10.4342 0.80558,-2.4551 3.18396,-3.49085 3.18396,-3.49085 0,0 2.91544,-0.8823 4.98693,-0.0767 2.0715,0.80558 2.76199,2.60855 2.76199,2.60855 z"
       id="o_do_g" />
    <path
       style="fill:#ffbe31;fill-opacity:1;stroke-width:0.960473"
       d="m 347.05646,276.42956 -0.11054,-10.83548 c 0,0 0.25783,-1.43735 2.02587,-2.57987 1.76803,-1.14252 5.15676,-0.44227 5.15676,-0.44227 0,0 2.46789,0.81082 3.2414,2.91158 0.77352,2.10075 0.95769,7.66591 0.18417,10.02466 -0.77352,2.35874 -3.05723,3.35384 -3.05723,3.35384 0,0 -2.79939,0.84767 -4.78842,0.0737 -1.98905,-0.77396 -2.65205,-2.50616 -2.65205,-2.50616 z"
       id="o_do_p"
       sodipodi:nodetypes="ccscsscscc" />
    <path
       style="fill:url(#linearGradient315);fill-opacity:1"
       d="m 241.84944,259.10115 0.3255,28.10184 c 0,0 -0.1085,1.08501 -2.06153,0.97651 -1.95302,-0.10851 -10.34219,0.0647 -10.36187,-0.48825 -0.18402,-5.1707 0.54246,0.5425 -0.0542,-2.33279 -0.57361,-2.76423 -0.217,-20.995 -0.217,-20.995 0,0 -0.16275,-2.49553 -2.49553,-2.54978 -2.38885,-0.0555 -3.96031,0.217 -3.96031,0.217 0,0 -2.87528,-0.1085 -2.76678,2.49553 0.10851,2.60403 -0.217,22.02577 -0.217,22.02577 0,0 0.32551,1.08501 -1.30201,1.30202 -1.62752,0.217 -10.63313,0 -10.63313,0 0,0 -0.54251,-0.10851 -0.54251,-2.71254 0,-2.60403 -0.217,-32.22489 -0.217,-32.22489 0,0 -0.27126,-1.35627 1.46476,-1.46477 1.73602,-0.1085 9.49387,-0.16275 9.49387,-0.16275 0,0 1.62752,-0.1085 1.51902,1.84452 l -0.1085,1.95303 c 0,0 2.26293,-3.17899 4.92278,-3.71101 0.54249,-0.10851 -0.72537,-0.35969 7.57498,-0.46819 8.20891,-0.10735 9.63651,8.19371 9.63651,8.19371 z"
       id="n"
       sodipodi:nodetypes="ccssscscscscscscscsscc" />
    <path
       style="fill:url(#linearGradient313);fill-opacity:1"
       d="m 170.40132,255.14085 c 0.14334,1.06142 0.35377,1.82016 0.651,3.14654 0.35688,1.59255 1.39874,3.46995 2.00727,3.58059 0.59676,0.1085 5.75058,-2.27853 7.97486,-2.38703 2.22427,-0.1085 5.31656,0.27125 5.31656,0.27125 0,0 1.57328,0.48826 1.95303,1.62752 0.37975,1.13927 0.16274,3.20079 0.16274,3.20079 0,0 -6.57746,-0.7585 -10.30762,0.0543 -4.1254,0.89887 -9.27686,1.89877 -10.30762,7.86634 -1.03076,5.96757 0.0542,8.7886 0.43395,9.87362 1.02282,2.92277 4.98943,5.86822 6.18458,6.07607 1.24776,0.21701 8.6801,0.48826 10.47037,-5e-5 1.79028,-0.48825 4.71981,-3.52629 4.71981,-3.52629 0,0 1.35627,3.68904 3.58054,3.68904 2.22428,0 6.59267,0.40266 9.33112,-0.37975 2.27852,-0.65101 2.00727,-0.65101 2.00727,-0.65101 0,0 1.00835,-5.78843 0.0543,-8.08335 -0.44218,-1.06357 -2.76679,0.65101 -3.2008,-1.30201 -0.434,-1.95303 -0.3154,-15.64391 -0.434,-17.90272 -0.1273,-2.42439 -2.22428,-9.60237 -9.65662,-10.09063 -7.43234,-0.48825 -11.82664,0.16276 -11.82664,0.16276 0,0 -7.75785,0.92226 -9.22262,3.09229 0,0 0.0334,1.12504 0.10856,1.68173 z"
       id="a"
       sodipodi:nodetypes="sssscscssssscsscssssccss" />
    <path
       style="fill:#ffbe31;fill-opacity:1;stroke-width:0.959654"
       d="m 188.84655,271.85005 -0.10391,6.15598 c 0,0 0.0519,1.46075 -1.6106,1.82593 -1.66254,0.36519 -4.0005,0.0521 -4.0005,0.0521 0,0 -2.44187,0.10434 -2.70165,-2.0346 -0.25977,-2.13895 -0.15586,-3.18233 -0.15586,-3.18233 0,0 -0.0519,-2.39979 2.54578,-2.5563 2.59773,-0.15651 5.97478,-0.10434 5.97478,-0.10434 z"
       id="o_do_a"
       sodipodi:nodetypes="ccscscscc" />
    <path
       style="fill:#935745;fill-opacity:1"
       d="m 188.78516,272.00391 c 0.007,-7.4e-4 0.0818,0.008 0.0859,0.004 0.005,-0.005 0.0257,-0.0545 0.0273,-0.0625 7.6e-4,-0.004 -7.7e-4,-0.008 0,-0.0117 5.7e-4,-0.003 0.003,-0.005 0.004,-0.008 0.002,-0.009 0.002,-0.0408 -0.004,-0.0469 -0.002,-0.002 -0.005,-0.002 -0.008,-0.004 -0.0272,-0.0181 -0.008,-0.006 -0.0312,-0.0117 -0.0201,-0.005 0.007,-0.004 -0.0195,-0.008 -0.005,-7.1e-4 -0.0343,-0.003 -0.0391,0 -0.0201,0.0134 -0.0133,0.0244 -0.0195,0.043 -0.008,0.0242 -0.0122,0.0533 -0.004,0.0781 8.3e-4,0.002 -0.002,0.006 0,0.008 9.2e-4,9.3e-4 0.003,-9.2e-4 0.004,0 0.005,0.005 0.002,0.0131 0.004,0.0195 z"
       id="path2" />
    <path
       style="fill:url(#linearGradient311);fill-opacity:1"
       d="m 128.33988,256.4146 c 0,0 -2.56326,10.96015 -0.0884,17.76605 2.47488,6.80591 6.0988,9.54595 6.62913,9.81111 0.53033,0.26517 2.56326,3.62393 10.78338,5.65686 8.22011,2.03293 20.24093,-2.20972 20.94804,-3.97748 0.36701,-0.91754 -0.0884,-2.91681 -0.44196,-4.94975 -0.35355,-2.03293 -1.41421,-4.33102 -1.41421,-4.33102 0,0 -1.04971,-1.10531 -1.76777,-1.32583 -2.90313,-0.89156 -3.09359,2.2097 -8.83883,2.2097 -5.74525,0 -11.84404,-2.47487 -12.02081,-9.54594 -0.17678,-7.07106 0.44194,-8.22012 0.44194,-8.22012 0,0 2.47487,-7.33623 10.96015,-6.98267 8.48528,0.35355 8.1197,2.39247 9.53706,2.72488 1.76874,0.41482 2.6638,-2.96956 3.27925,-10.32628 0.35205,-4.20815 -15.55596,-4.40681 -18.208,-4.33103 -3.09359,0.0884 -16.44023,3.27037 -19.79899,15.82152 z"
       id="c"
       sodipodi:nodetypes="cssssscssscsssssc" />
    <path
       style="display:inline;fill:#b47941;fill-opacity:1;filter:url(#filter194)"
       d="m 130.125,289.625 c 0,0 13.5,7.25 17.25,6.375 3.75,-0.875 -5.375,6.375 -13.625,7.125 -8.25,0.75 -11.625,0.75 -11.625,0.75 0,0 -3,15.125 -7.375,19.5 -4.375,4.375 -3,3.75 -7,5.625 -4.19997,1.96873 -9.420495,1.13128 -10.972272,0.53661 C 95.118786,328.90087 92.125,327.125 93.25,323.25 c 1.125,-3.875 7.625,-11.125 7.625,-11.125 0,0 7.75,-10.625 8.5,-12.75 0.75,-2.125 0.96921,-4.06688 2.375,-4.375 3.19496,-0.70028 7.85265,-1.25123 9.625,-1.5 2.36652,-0.33217 9.125,-3.625 8.75,-3.875 z"
       id="perna_direita"
       sodipodi:nodetypes="csscsssscsssc" />
    <rect
       style="fill:url(#linearGradient16);fill-opacity:1;stroke-width:71.4626;stroke-dasharray:none;paint-order:stroke fill markers"
       id="retangulo6"
       width="40.344215"
       height="8.7500019"
       x="81.25"
       y="232"
       rx="4.5712385" />
    <rect
       style="opacity:0.5;fill:url(#linearGradient17);fill-opacity:1;stroke-width:64.9847;stroke-dasharray:none;paint-order:stroke fill markers"
       id="retangulo6-8"
       width="33.361538"
       height="8.7500019"
       x="94.065865"
       y="-240.8436"
       rx="3.7800596"
       transform="scale(1,-1)" />
    <path
       id="perna_esquerda"
       style="display:inline;fill:#b47941;fill-opacity:1;filter:url(#filter186)"
       d="m 164.625,207.875 c 0,0 -0.5,6.5 -14.75,9.375 -14.25,2.875 -23.75,7.375 -32.25,16.25 -8.5,8.875 -9.125,20.875 -8.625,35.375 0.5,14.5 -12.625,14.125 -12.625,14.125 0,0 -6.5,0.375 -7.625,0.375 -1.125,0 -2.625,3.5 -3.625,6.5 -1,3 -2.625,4.875 -5.75,10.25 C 76.25,305.5 70.5,311.75 70.5,311.75 c 0,0 -6.5,5 -7.5,6.875 -0.833182,1.56222 0.08898,3.97852 2.292969,5.46875 0.0053,0.003 0.01005,0.007 0.01563,0.0117 0.01197,0.008 0.02509,0.0154 0.03711,0.0234 0.0021,8.9e-4 0.0038,0.003 0.0059,0.004 0.0028,0.002 0.0069,0.002 0.0098,0.004 0.0051,0.003 0.01077,0.005 0.01563,0.008 0.0086,0.005 0.01605,0.01 0.02344,0.0156 0.0027,0.002 0.0051,0.004 0.0078,0.006 0.12278,0.0806 0.254458,0.15448 0.382813,0.23046 0.007,0.003 0.01306,0.005 0.01953,0.008 0.01332,0.006 0.02278,0.0138 0.0293,0.0215 0.285521,0.16631 0.581378,0.32276 0.910156,0.44922 3.25,1.25 8.875,1.25 13.5,-0.5 4.625,-1.75 4.5,-3.125 9.625,-10.25 5.124995,-7.12498 6.625,-19.75 6.625,-19.75 0,0 -0.216309,0.59931 6.625002,-0.125 12.79702,-1.35485 17,-8 17,-8 2.25,1.125 8.375,1.625 8.375,1.625 0,0 -1,-0.625 -4.25,-6.375 -3.25,-5.75 -4.61786,-10.56268 -3.5,-20.375 1.125,-9.875 3.1005,-14.76249 10.25,-21.25 6.75,-6.125 18.25,-6.25 25.25,-6.25 7,0 10.78246,1.67986 13.75,3.875 3.5933,2.65803 3.91308,7.15581 4,7.125 1.32771,-0.47059 3.30584,-3.00484 5.625,-1.75 1.14125,0.6175 1.875,1.25 3,3.75 1.125,2.5 4.46134,2.92867 5.625,2.125 1,-0.69064 1.875,-1.625 2.125,-5.75 0.24458,-4.03558 -8.49128,-9.3148 -8.875,-9.54492 0.19401,-0.21377 0.69404,-1.32626 2,-5.70508 2.125,-7.125 5.375,-8.25 5.375,-8.25 0,0 -3.47855,-0.38572 -6.125,-1.375 -6.1065,-2.28269 -18.125,-10.25 -18.125,-10.25 z"
       sodipodi:nodetypes="cssscssscsccccccsccccssscsccsssssssssscscscc" />
    <path
       style="display:inline;fill:#b47941;fill-opacity:1;filter:url(#filter145)"
       d="m 188.40089,219.64775 c 0,0 15.59911,0.47725 18.53661,-0.0853 2.9375,-0.5625 9.46875,-1.40625 12.71875,-5.59375 3.25,-4.1875 3.9375,-4.4375 4.34375,-11.21875 0.17152,-2.86307 -5.125,-3.53125 -7.3125,-3.46875 -2.1875,0.0625 -3.46875,-3.84375 -3.46875,-3.84375 0,0 -0.3125,-6.96875 -2.1875,-10.40625 -1.875,-3.4375 -4.0625,-6.09375 -4.0625,-6.09375 0,0 8.99419,-4.80536 10.15658,-13.41201 1.03856,-7.68979 0.70833,-7.95377 0.70776,-8.15004 -0.006,-1.95391 -0.35356,-5.01604 -1.32584,-6.91639 -0.97227,-1.90035 -3.0052,-1.43631 -3.0052,-1.43631 0,0 -2.79594,0.56521 -6.43025,2.91682 -3.38085,2.18761 -6.09879,5.06023 -8.13172,8.08753 -1.77565,2.64417 -2.76497,5.59443 -3.20409,6.58493 -0.45664,1.03005 -1.70147,5.76734 -1.70147,5.76734 -2.38329,-0.26756 -4.83391,-0.32796 -6.31977,-0.33146 -1.13014,-0.003 -4.05574,0.0118 -5.3254,0.17678 -0.36548,0.0475 -0.12578,-3.21602 -5.12652,-11.57887 -1.68299,-2.8145 -7.09381,-8.19423 -10.05482,-10.00619 -2.96101,-1.81196 -7.80591,-4.2382 -9.57367,-3.4427 -1.76777,0.79549 -3.36948,1.34727 -3.89981,7.79962 -0.53033,6.45235 -0.58969,11.61732 1.39904,15.15286 1.98874,3.53553 6.72345,7.2597 8.68925,8.75933 1.72802,1.31824 2.71415,1.9856 2.71415,1.9856 l 1.18436,0.74371 c 0,0 -2.31228,2.46982 -2.74448,3.31457 -0.97228,1.90035 -3.22357,5.61266 -3.4218,8.80536 -0.18655,3.00461 -0.61871,6.93535 1.32583,11.61993 1.94454,4.68458 6.427,7.28445 7.48766,7.99156 1.06066,0.70711 5.20863,3.23376 7.29204,4.02167 1.49843,0.56668 9.06206,2.48028 10.74031,2.25661 z"
       id="cabeca"
       sodipodi:nodetypes="csssscscssscssscssssssssccsssssc" />
    <path
       style="display:inline;fill:url(#linearGradient34)"
       d="m 109.24799,267.63992 c 0,0 -4.06586,6.0988 -15.733118,9.72272 -5.671217,1.76151 -6.413607,1.70108 -16.617011,0.97226 -7.424621,-0.53033 -10.164659,-1.06065 -10.164659,-1.06065 l -9.104,-1.23744 c 0,0 -3.800699,10e-6 -3.093592,1.94455 0.707107,1.94454 5.480078,4.86136 5.480078,4.86136 0,0 7.159456,3.71231 12.904699,4.86135 5.745242,1.14905 7.071067,1.06066 8.043339,1.14905 0.972272,0.0884 4.772971,0.17678 4.772971,0.17678 l 3.18198,-4.94974 c 0,0 0.53033,-0.26517 1.325825,-0.35356 0.795495,-0.0884 8.838835,-0.61872 8.838835,-0.61872 0,0 12.020813,-1.23744 10.164653,-15.46796 z"
       id="rabo"
       sodipodi:nodetypes="cssccscssccscc" />
    <path
       style="display:inline;fill:url(#linearGradient40)"
       d="m 108.96475,267.76257 c 0,0 -4.06586,6.0988 -15.733121,9.72272 -5.671217,1.76151 -6.413607,1.70108 -16.617011,0.97226 -7.424621,-0.53033 -10.164659,-1.06065 -10.164659,-1.06065 l -9.104,-1.23744 c 0,0 -3.800699,10e-6 -3.093592,1.94455 0.707107,1.94454 5.480078,4.86136 5.480078,4.86136 0,0 7.159456,3.71231 12.904699,4.86135 5.745242,1.14905 7.071067,1.06066 8.043339,1.14905 0.972272,0.0884 4.772971,0.17678 4.772971,0.17678 l 3.18198,-4.94974 c 0,0 0.53033,-0.26517 1.325825,-0.35356 0.795495,-0.0884 8.838835,-0.61872 8.838835,-0.61872 0,0 12.020816,-1.23744 10.164656,-15.46796 z"
       id="rabo-9"
       sodipodi:nodetypes="cssccscssccscc" />
    <path
       style="display:inline;fill:#b47941;fill-opacity:1;filter:url(#filter354)"
       d="m 194.3125,230.75 c 0,0 5.955,1.64102 9.25,8.75 1.79816,3.87955 0.77769,5.93697 0.3125,6.5625 -0.39496,0.53109 -2.125,2.3125 -4.25,0.375 -2.125,-1.9375 -3.30764,-4.76913 -4.125,-5.375 -0.99126,-0.73478 -2.875,-1.625 -2.875,-1.625 0,0 1.375,-2.75 1.6875,-8.6875 z"
       id="pata_direita"
       sodipodi:nodetypes="csssscc" />
    <path
       style="display:inline;fill:url(#linearGradient44);fill-opacity:1;filter:url(#filter217)"
       d="m 188.55537,219.59106 c 0,-0.066 2.95884,0.0488 6.63075,-0.0227 0,0 1.25125,15.66752 -2.1705,19.97855 -2.69203,3.39166 -2.75,4.5 -2.75,4.5 0,0 -1.125,-5.0625 -4.1875,-7.3125 -3.74249,-2.74962 -4.625,-2.93754 -4.625,-2.93754 0,0 2.31193,-8.05514 3.79733,-10.98169 1.22885,-2.42108 3.30492,-3.22412 3.30492,-3.22412 z"
       id="peito"
       sodipodi:nodetypes="csscscsc"
       inkscape:highlight-color="#ffd992" />
    <ellipse
       style="display:inline;fill:#321f14;fill-opacity:1;stroke-width:1.07614"
       id="olho_esquerdo"
       cx="191.6875"
       cy="194.125"
       rx="3.8125"
       ry="6.125" />
    <ellipse
       style="display:inline;fill:#321f14;fill-opacity:1;stroke-width:0.932431"
       id="olho_direito"
       cx="208.0625"
       cy="192.375"
       rx="3.1875"
       ry="5.5" />
    <path
       style="display:inline;fill:#321f14;fill-opacity:1"
       d="m 211.375,201.375 c 0,0 -2.02424,1.87584 0,4.125 0.84375,0.9375 2.99971,2.94295 6.53125,3.125 2.73518,0.141 4.5488,-2.32563 4.6875,-2.5 1.09375,-1.375 2.125,-3.4375 0.625,-4.78125 -1.77876,-1.59347 -9.84375,-2.21875 -11.84375,0.0312 z"
       id="fucinho"
       sodipodi:nodetypes="csssscc" />
    <rect
       style="fill:#ffbe31;fill-opacity:1;stroke-width:2.59883;stroke-dasharray:none;paint-order:stroke fill markers"
       id="retangulo3"
       width="14.5"
       height="7.7500019"
       x="56.375"
       y="232.37498"
       rx="4.3340001" />
    <rect
       style="opacity:0.5;fill:url(#linearGradient20);fill-opacity:1;stroke-width:2.59883;stroke-dasharray:none;paint-order:stroke fill markers"
       id="retangulo3-0"
       width="14.5"
       height="7.7500019"
       x="56.393398"
       y="232.42633"
       rx="4.3340001" />
    <rect
       style="fill:#ffbe31;fill-opacity:1;stroke-width:2.59883;stroke-dasharray:none;paint-order:stroke fill markers"
       id="retangulo2"
       width="14.499996"
       height="7.7500019"
       x="44.625"
       y="257.625"
       rx="4.0339999" />
    <rect
       style="fill:#ffbe31;fill-opacity:1;stroke-width:2.27638;stroke-dasharray:none;paint-order:stroke fill markers"
       id="rect9-8-1"
       width="11.124996"
       height="7.7500019"
       x="30"
       y="257.75"
       rx="3.6323497" />
    <path
       style="fill:#ffbe31;fill-opacity:1;stroke-width:1.95975;stroke-dasharray:none;paint-order:stroke fill markers"
       d="m 33.062499,265.38779 c -0.788675,-0.15015 -1.37651,-0.45181 -1.89944,-0.97474 -1.867254,-1.86726 -1.303137,-5.23655 1.059493,-6.32802 0.549961,-0.25407 0.776337,-0.27245 3.339946,-0.27125 2.97934,10e-4 3.182986,0.0387 4.121005,0.75414 1.83168,1.39709 1.844363,4.70738 0.02336,6.09633 -0.88406,0.6743 -1.221222,0.74433 -3.769361,0.78284 -1.30625,0.0197 -2.599999,-0.007 -2.874999,-0.0593 z"
       id="retangulo1" />
    <path
       style="opacity:0.3;fill:#b47941;fill-opacity:1;stroke-width:1.95975;stroke-dasharray:none;paint-order:stroke fill markers"
       d="m 33.091759,265.39728 c -0.788675,-0.15015 -1.37651,-0.45181 -1.89944,-0.97474 -1.867254,-1.86726 -1.303137,-5.23655 1.059493,-6.32802 0.549961,-0.25407 0.776337,-0.27245 3.339946,-0.27125 2.97934,0.001 3.182986,0.0387 4.121005,0.75414 1.83168,1.39709 1.844363,4.70738 0.02336,6.09633 -0.88406,0.6743 -1.221222,0.74433 -3.769361,0.78284 -1.30625,0.0197 -2.599999,-0.007 -2.874999,-0.0593 z"
       id="retangulo1-0" />
    <rect
       style="fill:#ffbe31;fill-opacity:1;stroke-width:3.17951;stroke-dasharray:none;paint-order:stroke fill markers"
       id="retangulo4-2"
       width="21.703646"
       height="7.7500019"
       x="67.762558"
       y="257.41422"
       rx="4.0999999" />
    <rect
       style="opacity:0.5;fill:url(#linearGradient22);fill-opacity:1;stroke-width:3.17951;stroke-dasharray:none;paint-order:stroke fill markers"
       id="retangulo4-2-2"
       width="21.703646"
       height="7.7500019"
       x="67.790291"
       y="257.29288"
       rx="4.0999999" />
    <path
       id="path22"
       style="opacity:1;fill:#744a2f;fill-opacity:1;stroke-width:48.3465;stroke-dasharray:none;paint-order:stroke fill markers"
       d="m 76.092935,318.22904 c -0.08545,-0.0276 -0.49607,0.30069 -1.322721,1.15892 -3.455856,3.58795 -7.358255,4.52974 -9.283902,4.77604 0.02528,0.0143 0.05079,0.0321 0.07247,0.0496 0.03595,0.0291 0.06014,0.0629 0.08566,0.0976 0.003,0.004 0.0048,0.009 0.0075,0.0142 l 0.0034,7.3e-4 c 0.009,0.005 0.01896,0.0126 0.02822,0.0199 0.03394,0.0272 0.06586,0.0559 0.09626,0.0859 0.02711,0.0305 0.05894,0.0579 0.08862,0.0867 0.02508,0.0272 0.05434,0.0525 0.08385,0.0764 0.02696,0.0195 0.04906,0.0414 0.07715,0.0597 0.02265,0.0157 0.04582,0.0318 0.06971,0.0459 0.01311,0.007 0.02423,0.0161 0.03437,0.0246 4.776899,0.19395 10.321159,-6.37409 9.959235,-6.49522 z m -10.463321,6.3187 -0.0043,0.002 0.0026,0.004 c 0.0011,-0.002 3.31e-4,-0.004 0.0015,-0.006 z" />
    <path
       id="path22-4"
       style="fill:#744a2f;fill-opacity:1;stroke-width:48.3465;stroke-dasharray:none;paint-order:stroke fill markers"
       d="m 105.29014,322.22724 c -0.0862,-0.0253 -0.48775,0.31401 -1.29088,1.1943 -3.35747,3.68018 -7.23295,4.72724 -9.151225,5.02557 0.02566,0.0136 0.05164,0.0307 0.07378,0.0476 0.03673,0.0281 0.06182,0.0613 0.08827,0.0952 0.0031,0.004 0.0051,0.009 0.0078,0.014 l 0.0035,6.3e-4 c 0.0092,0.005 0.01929,0.0121 0.02874,0.0191 0.03466,0.0263 0.06735,0.0541 0.09855,0.0833 0.02793,0.0298 0.06049,0.0563 0.09094,0.0842 0.0258,0.0265 0.05575,0.0511 0.08589,0.0741 0.02748,0.0188 0.05017,0.0401 0.07874,0.0576 0.02306,0.0151 0.04667,0.0306 0.07092,0.044 0.0133,0.007 0.02466,0.0154 0.03502,0.0237 4.780395,0.0646 10.144855,-6.65112 9.779775,-6.7624 z m -10.288469,6.59959 -0.0042,0.002 0.0027,0.004 c 0.001,-0.002 2.22e-4,-0.004 0.0014,-0.006 z" />
    <path
       id="path22-1"
       style="fill:#744a2f;fill-opacity:1;stroke-width:25.2952;stroke-dasharray:none;paint-order:stroke fill markers"
       d="m 80.144527,320.48196 c -0.0438,-0.001 -0.181007,0.23551 -0.42582,0.82202 -1.023442,2.45187 -2.673822,3.53119 -3.522951,3.94511 0.01392,0.004 0.02853,0.0102 0.04132,0.0164 0.02121,0.0102 0.03773,0.0254 0.05504,0.0406 0.0019,0.001 0.0036,0.004 0.0056,0.007 l 0.0017,-9e-5 c 0.005,8.7e-4 0.01068,0.003 0.01617,0.007 0.01996,0.009 0.03927,0.0207 0.05809,0.0328 0.01735,0.0131 0.0364,0.0228 0.05467,0.0342 0.0159,0.0116 0.03345,0.0208 0.05086,0.0294 0.01556,0.007 0.02924,0.0155 0.0451,0.0212 0.01301,0.006 0.02616,0.0102 0.03947,0.0149 0.0072,0.001 0.01375,0.006 0.01974,0.007 2.234459,-0.58955 3.747228,-4.96418 3.561004,-4.97731 z m -3.821622,4.95474 -0.0017,0.001 0.0017,10e-4 c 2.24e-4,-10e-4 -3.57e-4,-10e-4 -1e-4,-0.003 z" />
    <path
       id="path22-1-6"
       style="fill:#744a2f;fill-opacity:1;stroke-width:24.8747;stroke-dasharray:none;paint-order:stroke fill markers"
       d="m 108.99107,325.8196 c -0.0429,-0.009 -0.22147,0.19664 -0.5691,0.71709 -1.45323,2.17571 -3.28113,2.95472 -4.19624,3.22127 0.013,0.006 0.0266,0.0133 0.038,0.0216 0.0193,0.0126 0.0328,0.0297 0.0473,0.0466 0.002,10e-4 0.002,0.005 0.005,0.007 l 0.002,1.7e-4 c 0.005,0.002 0.01,0.005 0.0146,0.01 0.0182,0.0114 0.0352,0.0255 0.0517,0.0398 0.0148,0.0149 0.032,0.027 0.048,0.0407 0.0137,0.0134 0.0295,0.0246 0.0451,0.0355 0.0141,0.009 0.0262,0.0189 0.0408,0.0268 0.0121,0.007 0.0243,0.0127 0.0365,0.0199 0.007,0.003 0.0128,0.007 0.0182,0.0103 2.31848,-0.22696 4.6011,-4.15549 4.41904,-4.19571 z m -4.67308,4.13544 -0.002,5.3e-4 0.002,10e-4 c 4e-4,-9.3e-4 -1.8e-4,-10e-4 4.6e-4,-0.003 z" />
    <path
       style="opacity:0.5;fill:#744a2f;fill-opacity:1;stroke-width:50;stroke-dasharray:none;paint-order:stroke fill markers"
       d="m 123.68749,280.49999 c 0,0 -0.82952,2.31442 -3.53125,5.78125 -0.38323,0.49176 8.28125,1.59375 8.28125,1.59375 0,0 -2.375,-2.875 -4.75,-7.375 z"
       id="path32"
       sodipodi:nodetypes="cscc" />
    <path
       style="opacity:0.5;fill:#744a2f;fill-opacity:1;fill-rule:evenodd;stroke-width:50;stroke-dasharray:none;paint-order:stroke fill markers"
       d="m 174.00351,244.65894 c 0,0 3.08699,-2.59323 5.29349,-2.08092 0.27994,0.065 -6.42092,-3.90248 -7.38168,-3.07875 -0.0773,0.0663 1.20432,0.82864 2.08819,5.15967 z"
       id="path194"
       sodipodi:nodetypes="cssc" />
    <path
       style="opacity:1;fill:#ffd992;fill-opacity:1;fill-rule:evenodd;stroke-width:50;stroke-dasharray:none;paint-order:stroke fill markers"
       d="m 159.45257,154.98896 c -2.03021,10.94361 4.33965,17.79568 6.98268,20.10835 1.06066,0.92808 8.3085,5.43588 10.34143,4.77297 1.4372,-0.46865 -0.51332,-6.75741 -2.74003,-11.62307 -0.35004,-0.76489 -6.74076,-14.05535 -14.58408,-13.25825 z"
       id="path354"
       sodipodi:nodetypes="csssc" />
    <path
       style="opacity:1;fill:#ffd992;fill-opacity:1;fill-rule:evenodd;stroke-width:50;stroke-dasharray:none;paint-order:stroke fill markers"
       d="m 200.37638,174.61117 c 0,0 3.52235,-15.29483 12.15339,-17.81025 4.63056,-1.34952 1.68201,7.38044 0.44376,10.38075 -1.95553,4.73831 -7.80995,10.30671 -7.86838,10.16955 -0.4078,-0.95734 -4.41941,-2.91683 -4.72877,-2.74005 z"
       id="path355"
       sodipodi:nodetypes="csssc" />
    <path
       style="opacity:1;fill:#321f14;fill-opacity:1;fill-rule:evenodd;stroke-width:50;stroke-dasharray:none;paint-order:stroke fill markers"
       d="m 217.18749,207.37499 c 0,0 1.27799,3.1236 -2.71431,8.65533 2.39006,-0.20736 3.68991,-2.97651 4.27681,-7.53033 0.70308,-5.45524 -1.5625,-1.125 -1.5625,-1.125 z"
       id="path357"
       sodipodi:nodetypes="cssc" />
  </g>
</svg>
